<?xml version="1.0" standalone="no"?>
<!DOCTYPE svg PUBLIC "-//W3C//DTD SVG 20010904//EN"
 "http://www.w3.org/TR/2001/REC-SVG-20010904/DTD/svg10.dtd">
<svg version="1.0" xmlns="http://www.w3.org/2000/svg"
 width="500.000000pt" height="500.000000pt" viewBox="0 0 500.000000 500.000000"
 preserveAspectRatio="xMidYMid meet">
<metadata>
Created by potrace 1.15, written by Peter Selinger 2001-2017
</metadata>
<g transform="translate(0.000000,500.000000) scale(0.100000,-0.100000)"
fill="#000000" stroke="none">
<path d="M2446 4993 c-3 -4 -14 -7 -24 -8 -9 -1 -339 -183 -732 -404 -393
-222 -850 -479 -1015 -572 -165 -92 -315 -181 -333 -196 -21 -18 -36 -42 -42
-68 -6 -23 -10 -548 -10 -1240 l0 -1200 38 -34 c20 -19 505 -313 1076 -653
l1039 -619 61 2 61 2 630 370 c347 203 734 431 860 505 127 75 302 177 390
228 88 50 172 103 188 117 l27 26 0 1231 c0 1341 4 1256 -57 1311 -15 14 -212
134 -438 266 -225 132 -656 385 -957 562 -681 400 -647 381 -707 381 -26 0
-51 -3 -55 -7z m490 -702 c219 -255 494 -575 611 -710 l211 -246 -1243 -3
c-684 -1 -1253 1 -1264 6 -19 7 34 71 485 592 278 322 562 650 631 729 l125
143 23 -23 c12 -13 202 -233 421 -488z m-818 270 c-472 -547 -1033 -1191
-1039 -1191 -16 0 -534 311 -534 320 0 10 1578 907 1598 909 5 1 -6 -16 -25
-38z m1503 -422 c423 -249 769 -455 769 -458 0 -3 -102 -69 -227 -145 -126
-77 -238 -146 -249 -153 -20 -13 -47 16 -547 597 -290 335 -524 610 -520 610
3 0 351 -203 774 -451z m-2818 -754 c113 -66 206 -125 207 -131 0 -10 -436
-1246 -490 -1389 -19 -50 -19 -45 -19 823 l-1 874 48 -29 c27 -15 141 -82 255
-148z m3646 -712 c0 -489 -3 -881 -6 -873 -3 8 -115 340 -249 737 l-243 722
242 150 c133 82 245 150 250 150 4 1 7 -398 6 -886z m-654 596 c13 -13 -380
-717 -743 -1334 -163 -276 -531 -865 -562 -898 -7 -8 -153 206 -292 428 -249
398 -847 1435 -975 1689 -51 102 -50 105 37 107 30 1 100 5 155 9 119 9 2371
8 2380 -1z m355 -990 c165 -493 300 -903 300 -912 0 -9 -10 -19 -22 -22 -13
-3 -426 -75 -918 -160 -492 -85 -903 -157 -913 -159 -9 -2 -15 -1 -13 2 2 4
48 84 103 177 101 172 956 1627 1087 1851 39 67 72 121 73 120 1 -1 137 -405
303 -897z m-2950 766 c29 -49 307 -521 617 -1049 310 -527 563 -960 561 -962
-6 -5 -1819 335 -1850 348 -19 7 -28 18 -28 32 0 17 578 1661 610 1735 13 29
9 33 90 -104z m475 -2010 l750 -140 3 -323 c1 -177 0 -322 -2 -322 -6 0 -1549
921 -1561 931 -5 6 5 6 25 2 19 -4 373 -70 785 -148z m2464 131 c-2 -2 -247
-147 -544 -321 -297 -175 -650 -383 -784 -462 -134 -78 -246 -143 -248 -143
-2 0 -2 147 -1 327 l3 327 505 88 c278 48 629 110 780 137 315 55 295 52 289
47z"/>
</g>
</svg>
