<?xml version="1.0" standalone="no"?>
<!DOCTYPE svg PUBLIC "-//W3C//DTD SVG 20010904//EN"
 "http://www.w3.org/TR/2001/REC-SVG-20010904/DTD/svg10.dtd">
<svg version="1.0" xmlns="http://www.w3.org/2000/svg"
 width="500.000000pt" height="500.000000pt" viewBox="0 0 500.000000 500.000000"
 preserveAspectRatio="xMidYMid meet">
<metadata>
Created by potrace 1.11, written by Peter Selinger 2001-2013
</metadata>
<g transform="translate(0.000000,500.000000) scale(0.100000,-0.100000)"
fill="#000000" stroke="none">
<path d="M2458 4995 c-3 -3 -15 -8 -28 -10 -12 -2 -228 -120 -479 -261 -1349
-760 -1577 -889 -1589 -901 -7 -7 -17 -13 -22 -13 -5 0 -16 -13 -25 -30 -13
-25 -15 -175 -15 -1253 l0 -1224 25 -25 c14 -14 157 -104 318 -200 160 -96
585 -349 942 -563 358 -213 698 -417 757 -452 175 -106 46 -162 1230 534 551
325 1017 597 1034 606 17 9 35 24 38 34 11 27 7 2469 -4 2497 -5 13 -20 35
-34 49 -14 14 -247 156 -518 315 -1232 724 -1466 861 -1505 881 -39 19 -112
29 -125 16z m676 -931 l629 -729 -637 -3 c-350 -1 -922 -1 -1273 0 l-636 3
634 733 c349 402 638 731 644 729 5 -2 293 -331 639 -733z m-986 529 c-88
-102 -1062 -1229 -1063 -1231 -3 -4 -555 323 -555 329 0 3 129 78 288 167 158
89 521 294 807 456 286 162 524 294 529 295 5 1 2 -7 -6 -16z m1473 -450 c428
-252 779 -460 779 -463 -1 -7 -489 -304 -504 -307 -6 -1 -38 31 -72 70 -116
138 -947 1102 -972 1130 -14 15 -22 27 -18 27 4 0 358 -206 787 -457z m839
-1480 c0 -498 -2 -904 -5 -902 -12 13 -507 1503 -499 1506 5 2 117 71 249 152
132 82 243 150 248 150 4 1 7 -407 7 -906z m-3698 748 c152 -90 252 -155 250
-163 -7 -32 -505 -1434 -513 -1442 -5 -6 -9 368 -9 872 0 556 4 882 10 882 5
0 123 -67 262 -149z m2929 -137 c60 -4 109 -10 109 -14 0 -25 -470 -859 -763
-1355 -194 -329 -539 -875 -551 -875 -23 0 -310 458 -677 1083 -355 603 -433
740 -554 972 -43 83 -84 155 -92 162 -9 7 -11 13 -4 18 6 3 11 2 11 -3 0 -5
12 -7 28 -5 115 16 382 20 1316 22 588 0 1118 -2 1177 -5z m-2357 -452 c689
-1165 1052 -1787 1042 -1790 -22 -5 -1828 339 -1857 354 -24 12 -29 20 -24 37
4 12 119 339 257 727 137 388 275 778 306 867 31 89 60 159 64 157 3 -2 99
-160 212 -352z m2825 -561 c167 -497 299 -907 294 -911 -9 -8 -1865 -331
-1871 -326 -1 2 200 350 449 772 248 423 528 900 622 1059 206 352 190 326
198 317 3 -4 142 -414 308 -911z m-2513 -1217 c428 -80 782 -148 786 -150 8
-5 12 -654 4 -654 -2 0 -140 82 -307 181 -167 100 -515 308 -774 462 -511 304
-515 307 -498 307 6 0 362 -66 789 -146z m1723 -336 c-431 -253 -792 -463
-801 -466 -17 -4 -18 16 -18 321 0 179 3 328 8 330 4 3 131 26 282 52 151 27
498 87 770 135 272 48 506 88 519 89 14 0 -328 -207 -760 -461z"/>
</g>
</svg>
